<svg width="1403" height="533" viewBox="0 0 1403 533" fill="none" xmlns="http://www.w3.org/2000/svg">
<rect x="212" y="14" width="75" height="75" rx="37.5" fill="#E0E0E0"/>
<rect x="227" y="29" width="45" height="45" rx="22.5" fill="white"/>
<rect x="93" y="257.262" width="100" height="100" transform="rotate(-25 93 257.262)" fill="#E0E0E0"/>
<rect x="119.578" y="266.936" width="60" height="60" transform="rotate(-25 119.578 266.936)" fill="white"/>
<rect x="1247" y="42.2618" width="100" height="100" transform="rotate(-25 1247 42.2618)" fill="#E0E0E0"/>
<rect x="1273.58" y="51.9356" width="60" height="60" transform="rotate(-25 1273.58 51.9356)" fill="white"/>
<rect x="772.696" y="101" width="75" height="75" transform="rotate(25 772.696 101)" fill="#E0E0E0"/>
<rect x="779.952" y="120.934" width="45" height="45" transform="rotate(25 779.952 120.934)" fill="white"/>
<rect x="772.696" y="101" width="75" height="75" transform="rotate(25 772.696 101)" fill="#E0E0E0"/>
<rect x="779.952" y="120.934" width="45" height="45" transform="rotate(25 779.952 120.934)" fill="white"/>
<rect x="1334.7" y="415" width="75" height="75" transform="rotate(25 1334.7 415)" fill="#E0E0E0"/>
<rect x="1341.95" y="434.934" width="45" height="45" transform="rotate(25 1341.95 434.934)" fill="white"/>
<rect x="440.721" y="42.4702" width="30" height="100" transform="rotate(-25 440.721 42.4702)" fill="#E0E0E0"/>
<rect x="514.422" y="46.7208" width="30" height="100" transform="rotate(65 514.422 46.7208)" fill="#E0E0E0"/>
<rect x="1234.49" y="256.094" width="22.5" height="75" transform="rotate(25 1234.49 256.094)" fill="#E0E0E0"/>
<rect x="1267.58" y="300.487" width="22.5" height="75" transform="rotate(115 1267.58 300.487)" fill="#E0E0E0"/>
<rect x="55.4869" y="100.094" width="22.5" height="75" transform="rotate(25 55.4869 100.094)" fill="#E0E0E0"/>
<rect x="88.5757" y="144.487" width="22.5" height="75" transform="rotate(115 88.5757 144.487)" fill="#E0E0E0"/>
<rect x="1020" y="63" width="100" height="100" rx="50" fill="#E0E0E0"/>
<rect x="1040" y="83" width="60" height="60" rx="30" fill="white"/>
<rect x="20" y="433" width="100" height="100" rx="50" fill="#E0E0E0"/>
<rect x="40" y="453" width="60" height="60" rx="30" fill="white"/>
<rect x="212" y="14" width="75" height="75" rx="37.5" fill="#E0E0E0"/>
<rect x="227" y="29" width="45" height="45" rx="22.5" fill="white"/>
<rect x="1141" y="427" width="75" height="75" rx="37.5" fill="#E0E0E0"/>
<rect x="1156" y="442" width="45" height="45" rx="22.5" fill="white"/>
</svg>
